<svg width="172" height="287" viewBox="0 0 172 287" fill="none" xmlns="http://www.w3.org/2000/svg">
<g filter="url(#filter0_d_243_5196)">
<path d="M32.6769 199.229V256C143.877 265.2 153.677 104.896 144.677 25.229H66.6769C39.8769 28.429 30.5102 49.8957 29.1769 60.229V141.229H85.1769C74.3769 190.429 45.6769 200.396 32.6769 199.229Z" fill="url(#paint0_linear_243_5196)"/>
<path d="M147.339 24L68.2439 24C43.9416 24 24.1697 43.7719 24.1697 68.0742L24.1697 149.129L79.3244 149.129C76.6502 157.676 72.5296 167.164 69.6509 172.904C65.8231 180.539 60.8908 186.714 54.9913 191.259C49.5276 195.475 42.5472 197.523 33.6443 197.523L24.9592 197.523L24.9592 262.327L33.6443 262.327C52.9022 262.327 70.0843 258.115 84.7139 249.808C99.1974 241.577 111.254 230.463 120.549 216.773C129.683 203.309 136.523 187.525 140.881 169.859C145.166 152.541 147.339 133.809 147.339 114.188L147.339 24ZM138.654 32.685L138.654 114.188C138.654 133.162 136.594 151.025 132.449 167.779C128.316 184.532 121.951 199.237 113.364 211.895C104.778 224.54 93.7976 234.656 80.425 242.255C67.0643 249.843 51.4707 253.642 33.6443 253.642L33.6443 206.208C44.439 206.208 53.3214 203.518 60.2915 198.139C67.2743 192.761 72.9733 185.655 77.4145 176.797C81.8557 167.939 88.7477 151.511 90.3268 140.444L32.8547 140.444L32.8547 68.0742C32.8547 48.5289 48.6994 32.685 68.2439 32.685L138.654 32.685Z" fill="white"/>
<path d="M59.7857 74.0654V85H55.9081V56.5971C58.8421 56.4679 60.6129 56.4032 61.2204 56.4032C69.4666 56.4032 73.5897 59.1627 73.5897 64.6818C73.5897 71.0668 69.9448 74.2592 62.655 74.2592C62.2156 74.2592 61.2591 74.1946 59.7857 74.0654ZM59.7857 60.0869V70.5756C61.4272 70.7048 62.2931 70.7695 62.3836 70.7695C67.1918 70.7695 69.5958 68.8759 69.5958 65.0889C69.5958 61.625 67.0302 59.893 61.8989 59.893C61.3819 59.893 60.6775 59.9576 59.7857 60.0869ZM81.558 56.3838C82.1913 56.3838 82.7277 56.61 83.1672 57.0624C83.6195 57.5019 83.8457 58.0318 83.8457 58.6522C83.8457 59.2855 83.6195 59.8284 83.1672 60.2808C82.7277 60.7202 82.1913 60.9399 81.558 60.9399C80.9376 60.9399 80.4012 60.7202 79.9488 60.2808C79.5094 59.8284 79.2896 59.2855 79.2896 58.6522C79.2896 58.0189 79.5094 57.4825 79.9488 57.043C80.3883 56.6036 80.9247 56.3838 81.558 56.3838ZM79.5417 85V67.3379H76.6917V64.2358H83.2253V85H79.5417ZM92.5702 64.2358V77.4776C92.5702 80.683 93.9596 82.2857 96.7385 82.2857C97.9535 82.2857 99.065 81.9368 100.073 81.2388C101.081 80.5408 101.747 79.733 102.07 78.8153V64.2358H105.754V85H102.07V82.1306C101.657 82.9449 100.823 83.6946 99.5691 84.3796C98.3283 85.0517 97.1133 85.3878 95.9242 85.3878C93.6494 85.3878 91.9045 84.735 90.6896 83.4296C89.4875 82.1242 88.8865 80.2694 88.8865 77.8653V64.2358H92.5702ZM97.0681 60.0869L92.6865 53.6308H96.5059L99.7824 60.0869H97.0681ZM63.101 120.388H62.1316L53.2327 99.1777H57.2653L62.752 113.718L68.355 99.1777H72.2131L63.101 120.388ZM78.8825 91.3838C79.5158 91.3838 80.0522 91.61 80.4917 92.0624C80.944 92.5019 81.1702 93.0318 81.1702 93.6522C81.1702 94.2855 80.944 94.8284 80.4917 95.2808C80.0522 95.7202 79.5158 95.9399 78.8825 95.9399C78.2621 95.9399 77.7257 95.7202 77.2733 95.2808C76.8339 94.8284 76.6141 94.2855 76.6141 93.6522C76.6141 93.0189 76.8339 92.4825 77.2733 92.043C77.7128 91.6036 78.2492 91.3838 78.8825 91.3838ZM76.8662 120V102.338H74.0162V99.2358H80.5498V120H76.8662ZM85.0478 118.759L86.3467 115.269C88.4018 116.614 90.0562 117.286 91.31 117.286C93.5848 117.286 94.7222 116.329 94.7222 114.416C94.7222 113.046 93.6236 111.87 91.4263 110.888C89.7331 110.112 88.5892 109.524 87.9947 109.124C87.4131 108.723 86.9025 108.27 86.4631 107.766C86.0365 107.249 85.7134 106.707 85.4937 106.138C85.2869 105.556 85.1835 104.936 85.1835 104.277C85.1835 102.571 85.8039 101.239 87.0447 100.283C88.2855 99.3263 89.9076 98.8481 91.911 98.8481C93.4232 98.8481 95.3297 99.3263 97.6303 100.283L96.5834 103.695C95.1229 102.532 93.6559 101.95 92.1824 101.95C91.3035 101.95 90.5603 102.157 89.9528 102.571C89.3583 102.984 89.061 103.508 89.061 104.141C89.061 105.472 89.8171 106.48 91.3294 107.165L93.9661 108.367C95.5817 109.104 96.7579 109.944 97.4946 110.888C98.2314 111.831 98.5997 113.014 98.5997 114.436C98.5997 116.297 97.947 117.757 96.6416 118.817C95.3361 119.864 93.5266 120.388 91.213 120.388C89.0287 120.388 86.9736 119.845 85.0478 118.759ZM103.815 102.144H101.411V99.2358H103.815V94.893L107.499 93.4777V99.2358H113.199V102.144H107.499V112.458C107.499 114.203 107.789 115.444 108.371 116.181C108.966 116.917 109.916 117.286 111.221 117.286C112.165 117.286 113.14 117.047 114.149 116.568L114.691 119.806C113.166 120.194 111.493 120.388 109.67 120.388C108.029 120.388 106.639 119.78 105.502 118.565C104.377 117.337 103.815 115.793 103.815 113.932V102.144ZM122.039 91.3838C122.673 91.3838 123.209 91.61 123.649 92.0624C124.101 92.5019 124.327 93.0318 124.327 93.6522C124.327 94.2855 124.101 94.8284 123.649 95.2808C123.209 95.7202 122.673 95.9399 122.039 95.9399C121.419 95.9399 120.883 95.7202 120.43 95.2808C119.991 94.8284 119.771 94.2855 119.771 93.6522C119.771 93.0189 119.991 92.4825 120.43 92.043C120.87 91.6036 121.406 91.3838 122.039 91.3838ZM120.023 120V102.338H117.173V99.2358H123.707V120H120.023Z" fill="white"/>
</g>
<defs>
<filter id="filter0_d_243_5196" x="0.169678" y="0" width="171.17" height="286.327" filterUnits="userSpaceOnUse" color-interpolation-filters="sRGB">
<feFlood flood-opacity="0" result="BackgroundImageFix"/>
<feColorMatrix in="SourceAlpha" type="matrix" values="0 0 0 0 0 0 0 0 0 0 0 0 0 0 0 0 0 0 127 0" result="hardAlpha"/>
<feOffset/>
<feGaussianBlur stdDeviation="12"/>
<feComposite in2="hardAlpha" operator="out"/>
<feColorMatrix type="matrix" values="0 0 0 0 0 0 0 0 0 0 0 0 0 0 0 0 0 0 0.25 0"/>
<feBlend mode="normal" in2="BackgroundImageFix" result="effect1_dropShadow_243_5196"/>
<feBlend mode="normal" in="SourceGraphic" in2="effect1_dropShadow_243_5196" result="shape"/>
</filter>
<linearGradient id="paint0_linear_243_5196" x1="152.479" y1="237.43" x2="7.83336" y2="72.513" gradientUnits="userSpaceOnUse">
<stop stop-color="#A83FF3"/>
<stop offset="0.0001" stop-color="#F534D0"/>
<stop offset="1" stop-color="#FF0A83"/>
</linearGradient>
</defs>
</svg>
