<svg width="81" height="80" viewBox="0 0 81 80" fill="none" xmlns="http://www.w3.org/2000/svg">
<path d="M0.499878 0H80.5V80H0.499878V0Z" fill="#BC1523"/>
<path d="M14.7311 28.3084C14.6086 28.8393 14.5401 29.4864 14.527 30.2491C14.527 30.3038 14.52 30.4055 14.5062 30.5557V30.8415C14.5062 31.7537 14.5809 32.4178 14.7311 32.833C14.8806 33.2483 15.1772 33.6196 15.6194 33.9463C16.0624 34.2729 16.6101 34.4363 17.2642 34.4363C18.2449 34.4363 19.0038 34.0788 19.5415 33.3639C20.0793 32.6497 20.3489 31.6312 20.3489 30.31C20.3489 27.5866 19.3813 26.2253 17.4476 26.2253C16.7943 26.2253 16.2118 26.4225 15.7011 26.8169C15.191 27.2122 14.8675 27.7091 14.7311 28.3084ZM14.4245 25.8162V26.4702C15.1872 25.4079 16.2288 24.877 17.55 24.877C18.9114 24.877 19.9945 25.3462 20.7981 26.2861C21.6016 27.226 22.003 28.4995 22.003 30.1058C22.003 31.8354 21.5777 33.2144 20.7264 34.2429C19.8751 35.2706 18.7349 35.7845 17.305 35.7845C16.1202 35.7845 15.1602 35.3692 14.4245 34.5387V36.2344C14.4245 36.7513 14.4384 37.0849 14.4653 37.2352C14.547 37.6573 14.7442 37.8684 15.0578 37.8684C15.1533 37.8684 15.2958 37.8476 15.4869 37.8068C15.6772 37.766 15.8205 37.7459 15.916 37.7459C16.3513 37.7459 16.5693 37.9709 16.5693 38.42C16.5693 38.8692 16.2843 39.0942 15.7142 39.0942C15.5108 39.0942 15.2057 39.0664 14.7981 39.0125C14.5 38.9717 14.0524 38.9509 13.4553 38.9509C13.1294 38.9509 12.8582 38.9647 12.641 38.9917C12.0979 39.0595 11.7381 39.0942 11.5624 39.0942C11.3313 39.0942 11.1341 39.0233 10.9715 38.8823C10.809 38.7413 10.7273 38.5772 10.7273 38.3892C10.7273 37.9601 10.9569 37.7459 11.4153 37.7459C11.4962 37.7459 11.6241 37.7637 11.7997 37.7983C12.0293 37.8453 12.198 37.8684 12.3059 37.8684C12.5624 37.8684 12.7203 37.7359 12.7812 37.4701C12.8421 37.2043 12.879 36.4655 12.8929 35.2537V27.3685C12.879 26.743 12.7034 26.4294 12.3667 26.4294C12.272 26.4294 12.1271 26.4533 11.9314 26.5003C11.7358 26.5481 11.584 26.5719 11.4761 26.5719C10.9769 26.5719 10.7273 26.3478 10.7273 25.8978C10.7273 25.4626 11.027 25.2445 11.6264 25.2445C11.7758 25.2445 11.9391 25.2515 12.1163 25.2646C12.4569 25.2923 12.7088 25.3054 12.8721 25.3054C12.9946 25.3054 13.1718 25.2954 13.4037 25.2753C13.6348 25.2545 13.8051 25.2445 13.9145 25.2445C14.2542 25.2445 14.4245 25.4356 14.4245 25.8162Z" fill="white"/>
<path d="M30.0779 31.6375V30.1869C29.7798 30.4596 29.4639 30.6506 29.1319 30.7593C28.7991 30.8679 28.2058 30.9634 27.3522 31.0451C25.8052 31.1953 25.0325 31.767 25.0325 32.7608C25.0325 33.2785 25.2197 33.6868 25.5942 33.9865C25.9686 34.2862 26.4755 34.4357 27.1157 34.4357C28.0279 34.4357 28.7467 34.1876 29.2713 33.6907C29.7952 33.1938 30.0641 32.5089 30.0779 31.6375ZM32.3453 35.7022C31.2289 35.7022 30.541 35.2192 30.2821 34.2523C29.588 35.2731 28.4978 35.7839 27.014 35.7839C25.9108 35.7839 25.0287 35.5119 24.3684 34.9672C23.7082 34.4226 23.3777 33.6938 23.3777 32.7816C23.3777 31.6514 23.8607 30.8201 24.8284 30.2893C25.1959 30.0852 25.5125 29.9519 25.7783 29.891C26.0433 29.8294 26.578 29.7516 27.3815 29.656C28.5256 29.5336 29.2713 29.3633 29.6188 29.1453C29.9655 28.928 30.1396 28.5259 30.1396 27.9403C30.1396 27.3818 29.9454 26.9427 29.5571 26.6222C29.1689 26.3025 28.628 26.1422 27.9331 26.1422C27.3206 26.1422 26.7482 26.3132 26.2174 26.653C26.0133 26.7894 25.9108 26.9327 25.9108 27.0821C25.9108 27.1368 25.9724 27.2046 26.0949 27.2863C26.2852 27.4226 26.3807 27.6538 26.3807 27.9812C26.3807 28.2539 26.2821 28.4781 26.0841 28.6553C25.8869 28.8325 25.6381 28.9211 25.3391 28.9211C24.9848 28.9211 24.6882 28.7978 24.4501 28.5528C24.212 28.3078 24.0926 28.0081 24.0926 27.6538C24.0926 26.8918 24.4709 26.2377 25.2267 25.6931C25.9824 25.1484 26.8985 24.8764 27.9739 24.8764C30.4524 24.8764 31.6919 26.0652 31.6919 28.4434V32.5605C31.6919 33.213 31.705 33.6005 31.7328 33.7223C31.8144 34.1984 32.0456 34.4357 32.4269 34.4357C32.9038 34.4357 33.1419 34.0035 33.1419 33.1375V32.1437C33.1419 31.7107 33.3499 31.4942 33.7651 31.4942C34.2081 31.4942 34.4292 31.8209 34.4292 32.475V33.7415C34.4015 35.0489 33.7066 35.7022 32.3453 35.7022Z" fill="white"/>
<path d="M38.1577 25.8058V26.3675C38.8657 25.3736 39.8125 24.8759 40.9974 24.8759C41.9504 24.8759 42.7231 25.1448 43.3156 25.6826C43.908 26.2211 44.2039 26.9121 44.2039 27.7565C44.2039 28.3559 44.0544 28.8428 43.7547 29.2172C43.455 29.5916 43.0598 29.7788 42.5698 29.7788C42.2563 29.7788 41.9913 29.6833 41.7732 29.493C41.5552 29.3019 41.4466 29.0708 41.4466 28.7981C41.4466 28.5801 41.5282 28.3867 41.6916 28.2157C41.8549 28.0454 42.046 27.9607 42.2632 27.9607C42.3048 27.9607 42.3926 27.9807 42.529 28.0215C42.6107 27.8582 42.6515 27.7087 42.6515 27.5724C42.6515 27.1779 42.4782 26.8443 42.1307 26.5716C41.784 26.2997 41.351 26.1633 40.8333 26.1633C39.7717 26.1633 39.0629 26.6402 38.7093 27.5932C38.4913 28.1787 38.3827 29.0639 38.3827 30.2488V31.597C38.3827 32.5092 38.3888 33.0199 38.4027 33.1286C38.4705 33.9051 38.6816 34.2926 39.036 34.2926C39.2132 34.2926 39.3965 34.2695 39.5876 34.2233C39.737 34.1879 39.8665 34.1709 39.9759 34.1709C40.4111 34.1709 40.6292 34.3851 40.6292 34.8142C40.6292 35.2842 40.3511 35.5184 39.7948 35.5184H39.7132C39.5098 35.5184 39.2008 35.4945 38.7871 35.4475C38.3726 35.3997 38.0645 35.3758 37.8603 35.3758C37.3179 35.3758 36.8904 35.3897 36.5784 35.4167L35.4382 35.5184C34.8811 35.5184 34.603 35.2803 34.603 34.8034C34.603 34.382 34.8642 34.1709 35.3865 34.1709C35.5237 34.1709 35.6269 34.1779 35.6962 34.191L36.0052 34.2518C36.1423 34.2795 36.2386 34.2926 36.2933 34.2926C36.6369 34.2926 36.8233 33.9799 36.8503 33.3535V32.3119L36.7894 27.6748C36.7486 26.8713 36.5437 26.4692 36.1762 26.4692C36.0668 26.4692 35.9173 26.49 35.7271 26.5308C35.536 26.5716 35.3865 26.5924 35.2779 26.5924C34.828 26.5924 34.603 26.3744 34.603 25.9383C34.603 25.4615 34.8958 25.2234 35.4821 25.2234C35.6177 25.2234 35.8218 25.2403 36.0945 25.2742C36.3665 25.3081 36.5714 25.3259 36.707 25.3259C36.8164 25.3259 36.9936 25.3081 37.2386 25.2742C37.3472 25.2403 37.4767 25.2234 37.6269 25.2234C37.9805 25.2234 38.1577 25.4175 38.1577 25.8058Z" fill="white"/>
<path d="M49.8986 26.225C48.9456 26.225 48.1967 26.5586 47.6521 27.2258C47.1074 27.8937 46.8077 28.8398 46.753 30.0655V30.3305C46.753 31.6109 47.0219 32.6156 47.5596 33.3436C48.0981 34.0724 48.8493 34.4368 49.8169 34.4368C50.8107 34.4368 51.5904 34.0724 52.1559 33.3436C52.7214 32.6156 53.0041 31.604 53.0041 30.3105C53.0041 27.5871 51.9687 26.225 49.8986 26.225ZM49.7961 35.785C48.3662 35.785 47.2229 35.2912 46.3647 34.3043C45.5072 33.3166 45.0781 31.9923 45.0781 30.3305C45.0781 28.6695 45.5103 27.3452 46.3755 26.3575C47.2399 25.3706 48.4009 24.8768 49.8577 24.8768C51.3423 24.8768 52.5133 25.3606 53.3708 26.3275C54.229 27.2943 54.6582 28.6079 54.6582 30.2697C54.6582 31.9314 54.2152 33.2658 53.3307 34.2735C52.4448 35.2812 51.2668 35.785 49.7961 35.785Z" fill="white"/>
<path d="M59.4578 26.91V33.2527C59.4717 33.9461 59.6573 34.2928 60.0148 34.2928C60.0973 34.2928 60.2691 34.2589 60.531 34.1903C60.6959 34.1634 60.806 34.1495 60.8607 34.1495C61.3145 34.1495 61.5418 34.3814 61.5418 34.8444C61.5418 35.2935 61.2629 35.5185 60.7066 35.5185C60.4894 35.5185 60.1435 35.4908 59.6681 35.4368C59.1936 35.3821 58.8268 35.3552 58.5695 35.3552C58.3523 35.3552 58.0264 35.3821 57.5919 35.4368C57.1581 35.4908 56.8392 35.5185 56.6358 35.5185H56.5341C55.964 35.5185 55.679 35.2735 55.679 34.7828C55.679 34.3613 55.9124 34.1495 56.3793 34.1495H56.5241C56.6065 34.1687 56.6682 34.1788 56.7098 34.1788C57.0534 34.255 57.2521 34.2928 57.3076 34.2928C57.5541 34.2928 57.7098 34.1872 57.7714 33.9754C57.833 33.7635 57.8708 33.2134 57.8846 32.3252L57.9054 30.8899V24.0633C57.8916 23.6534 57.8715 23.3799 57.8438 23.2436C57.749 22.9293 57.558 22.7721 57.2722 22.7721C57.2313 22.7721 57.0541 22.7991 56.7413 22.8538C56.5911 22.8807 56.4686 22.8946 56.3731 22.8946C55.9101 22.8946 55.679 22.6766 55.679 22.2405C55.679 21.7914 55.9509 21.5664 56.4956 21.5664C56.6458 21.5664 56.7745 21.5733 56.8839 21.5872L57.3746 21.6481C57.5919 21.6758 57.776 21.6889 57.9255 21.6889C58.0618 21.6889 58.266 21.6689 58.5387 21.628C58.8107 21.5872 59.0148 21.5664 59.1512 21.5664C59.4647 21.5664 59.6211 21.7636 59.6211 22.1581C59.6211 22.2944 59.6142 22.3961 59.6011 22.4639C59.5056 23.5109 59.4578 24.9932 59.4578 26.91Z" fill="white"/>
<path d="M64.432 28.9006C64.432 29.0916 64.5815 29.1864 64.8811 29.1864H69.764C70.0498 29.1864 70.1923 29.0916 70.1923 28.9006C70.1923 28.1787 69.9204 27.5523 69.3757 27.0208C68.8303 26.49 68.1908 26.2242 67.4551 26.2242C66.6924 26.2242 65.9982 26.5 65.3719 27.0516C64.7456 27.6032 64.432 28.2195 64.432 28.9006ZM71.8472 29.4314C71.8472 29.9491 71.8133 30.2657 71.7447 30.3813C71.6769 30.4976 71.4797 30.5554 71.153 30.5554H64.657C64.4798 30.5554 64.3642 30.5793 64.3095 30.6263C64.2548 30.6748 64.2278 30.7526 64.2278 30.8612C64.2278 31.8828 64.5345 32.7341 65.1469 33.4152C65.7602 34.0962 66.5221 34.4359 67.4351 34.4359C68.0344 34.4359 68.5822 34.2726 69.0791 33.946C69.576 33.6193 69.8996 33.2041 70.0498 32.7002L70.2332 32.1078C70.3287 31.7803 70.5537 31.617 70.9081 31.617C71.4111 31.617 71.6631 31.8759 71.6631 32.3936C71.6631 33.2788 71.2139 34.0654 70.3148 34.7526C69.4165 35.4406 68.395 35.7842 67.2509 35.7842C65.821 35.7842 64.6839 35.3042 63.8396 34.3443C62.9952 33.3843 62.573 32.0939 62.573 30.4737C62.573 28.812 63.0229 27.4637 63.9212 26.4291C64.8203 25.3937 65.9913 24.8759 67.4351 24.8759C68.7147 24.8759 69.7702 25.3051 70.6014 26.1633C71.4312 27.0208 71.8472 28.1109 71.8472 29.4314Z" fill="white"/>
<path d="M40.4503 44.4644C41.3594 44.4644 42.1198 44.7024 42.7307 45.1793V45.0977C42.7307 44.5938 42.948 44.3419 43.384 44.3419C43.8339 44.3419 44.0581 44.5599 44.0581 44.9952C44.0581 45.0769 44.0466 45.2818 44.0242 45.6084C43.9788 45.8812 43.9564 46.1531 43.9564 46.4251C43.9564 46.5884 43.9726 46.8272 44.0073 47.14C44.0412 47.4536 44.0581 47.6916 44.0581 47.855C44.0581 48.3727 43.837 48.6315 43.394 48.6315C42.9649 48.6315 42.7438 48.4135 42.7307 47.9782V47.3041C42.7168 46.895 42.4819 46.5445 42.0258 46.2517C41.5697 45.959 41.035 45.8126 40.4226 45.8126C39.7955 45.8126 39.2716 45.9728 38.8494 46.2926C38.4272 46.6131 38.2161 47.0114 38.2161 47.4875C38.2161 48.3596 38.8155 48.8765 40.0135 49.0398L41.1984 49.2032C43.5134 49.5167 44.6714 50.4766 44.6714 52.0837C44.6714 53.0645 44.2977 53.858 43.5504 54.4635C42.8039 55.0691 41.8263 55.3726 40.6182 55.3726C39.4911 55.3726 38.5135 55.0521 37.6853 54.4127V54.8002C37.6853 55.2909 37.4534 55.5359 36.9904 55.5359C36.4865 55.5359 36.2346 55.2563 36.2346 54.6985C36.2346 54.794 36.2755 54.4396 36.3571 53.6361C36.3841 53.4458 36.3979 53.2547 36.3979 53.0645C36.3979 52.7378 36.3702 52.4312 36.3163 52.1446C36.2616 51.8588 36.2346 51.6346 36.2346 51.4705C36.2346 50.9944 36.4526 50.7563 36.8879 50.7563C37.1745 50.7563 37.3548 50.8241 37.4295 50.9605C37.5043 51.0968 37.5489 51.4574 37.562 52.0429C37.5759 52.6284 37.8825 53.1053 38.4819 53.4728C39.0805 53.8403 39.8432 54.0244 40.7692 54.0244C41.4364 54.0244 41.988 53.8541 42.4241 53.5136C42.8594 53.1731 43.0774 52.7447 43.0774 52.227C43.0774 51.301 42.3424 50.7632 40.8717 50.613C39.4688 50.4636 38.4002 50.1877 37.6645 49.7856C36.9288 49.3842 36.5613 48.6793 36.5613 47.6716C36.5613 46.7186 36.9211 45.9451 37.6406 45.3527C38.3602 44.761 39.2962 44.4644 40.4503 44.4644Z" fill="white"/>
<path d="M51.8955 52.2063V50.8989C51.9086 50.3403 52.1543 50.0614 52.6312 50.0614C53.1073 50.0614 53.3454 50.375 53.3454 51.0013C53.3454 52.4859 53.1566 53.5206 52.7776 54.1061C52.2637 54.8958 51.4186 55.291 50.2422 55.291C49.1597 55.291 48.3886 54.9435 47.9294 54.2486C47.5904 53.7455 47.4217 52.8873 47.4217 51.6755V46.7726C47.4217 46.4868 47.2892 46.3435 47.0249 46.3435H46.3562C46.1336 46.3435 45.9487 46.2718 45.8031 46.1293C45.6567 45.986 45.5835 45.8126 45.5835 45.6085C45.5835 45.4174 45.6551 45.2479 45.7977 45.0977C45.941 44.9482 46.1004 44.8727 46.2776 44.8727H47.0742C47.3061 44.8727 47.4217 44.7433 47.4217 44.4845V42.3805C47.4217 41.8635 47.6875 41.6047 48.2183 41.6047C48.709 41.6047 48.954 41.8635 48.954 42.3805V44.5661C48.954 44.7711 49.0765 44.8727 49.3215 44.8727H51.548C52.0657 44.8727 52.3246 45.1116 52.3246 45.5877C52.3246 46.0915 52.0449 46.3435 51.4871 46.3435H49.2399C49.0488 46.3435 48.954 46.4868 48.954 46.7726V51.7979C48.954 53.2278 49.4301 53.9428 50.3831 53.9428C51.3492 53.9428 51.8539 53.3642 51.8955 52.2063Z" fill="white"/>
<path d="M56.6294 43.7495C56.3158 43.7495 56.0469 43.637 55.8227 43.4128C55.5978 43.1879 55.4853 42.919 55.4853 42.6054C55.4853 42.2926 55.5978 42.0269 55.8227 41.8088C56.0469 41.5916 56.3158 41.4822 56.6294 41.4822C56.9421 41.4822 57.2118 41.5916 57.436 41.8088C57.6609 42.0269 57.7734 42.2926 57.7734 42.6054C57.7734 42.919 57.6609 43.1879 57.436 43.4128C57.2118 43.637 56.9421 43.7495 56.6294 43.7495ZM57.6917 49.1015V51.7571C57.6917 52.4382 57.6987 52.8395 57.7118 52.962C57.7803 53.5753 57.9637 53.8811 58.2634 53.8811C58.3312 53.8811 58.5014 53.848 58.7742 53.7794C58.842 53.7525 58.9444 53.7386 59.0808 53.7386C59.5977 53.7386 59.8566 53.9628 59.8566 54.4127C59.8566 54.6038 59.7711 54.7671 59.6001 54.9027C59.4298 55.039 59.2148 55.1068 58.9552 55.1068C58.7364 55.1068 58.4051 55.076 57.9614 55.0152C57.5169 54.9535 57.1856 54.9235 56.9668 54.9235C56.6109 54.9235 56.2149 54.9505 55.7781 55.0052C55.2449 55.0729 54.8898 55.1068 54.7118 55.1068C54.1656 55.1068 53.8921 54.8757 53.8921 54.4127C53.8921 53.9628 54.1255 53.7386 54.5932 53.7386C54.7026 53.7386 54.8643 53.7586 55.077 53.7995C55.2904 53.8403 55.4514 53.8611 55.5616 53.8611C55.8913 53.8611 56.0908 53.425 56.1594 52.5537V47.3242C56.0908 46.4659 55.8844 46.0376 55.5415 46.0376C55.4314 46.0376 55.2765 46.0615 55.077 46.1092C54.8782 46.157 54.7303 46.1801 54.634 46.1801C54.1394 46.1801 53.8921 45.9629 53.8921 45.5268C53.8921 45.0638 54.1918 44.8319 54.7912 44.8319C55.0492 44.8319 55.2334 44.8388 55.3428 44.8527C55.7781 44.9074 56.0577 44.9344 56.1802 44.9344C56.2888 44.9344 56.456 44.9174 56.6802 44.8835C56.9052 44.8496 57.0716 44.8319 57.181 44.8319C57.5754 44.8319 57.7734 45.0977 57.7734 45.6285C57.7734 45.6832 57.768 45.7649 57.7572 45.8743C57.7464 45.9829 57.7411 46.0646 57.7411 46.1193C57.7295 46.2287 57.7187 46.6501 57.7079 47.3858C57.6971 47.9444 57.6917 48.516 57.6917 49.1015Z" fill="white"/>
<path d="M63.9139 46.4972V52.8399C63.9277 53.5333 64.1134 53.88 64.4709 53.88C64.5533 53.88 64.7251 53.8461 64.987 53.7775C65.1519 53.7506 65.2621 53.7375 65.3168 53.7375C65.7706 53.7375 65.9978 53.9686 65.9978 54.4316C65.9978 54.8808 65.7189 55.1057 65.1627 55.1057C64.9454 55.1057 64.5995 55.078 64.1242 55.024C63.6496 54.9693 63.2829 54.9424 63.0256 54.9424C62.8083 54.9424 62.4824 54.9693 62.0479 55.024C61.6142 55.078 61.2952 55.1057 61.0919 55.1057H60.9902C60.4201 55.1057 60.135 54.8607 60.135 54.37C60.135 53.9486 60.3684 53.7375 60.8353 53.7375H60.9801C61.0626 53.756 61.1242 53.766 61.1658 53.766C61.5094 53.8422 61.7082 53.88 61.7637 53.88C62.0102 53.88 62.1658 53.7744 62.2274 53.5626C62.2891 53.3507 62.3268 52.8006 62.3407 51.9124L62.3615 50.4771V43.6505C62.3476 43.2407 62.3276 42.9672 62.2999 42.8308C62.2051 42.5165 62.014 42.3593 61.7282 42.3593C61.6874 42.3593 61.5102 42.3863 61.1974 42.441C61.0472 42.4687 60.9247 42.4818 60.8291 42.4818C60.3661 42.4818 60.135 42.2638 60.135 41.8277C60.135 41.3786 60.407 41.1544 60.9516 41.1544C61.1019 41.1544 61.2305 41.1613 61.3399 41.1744L61.8307 41.2353C62.0479 41.263 62.2321 41.2769 62.3815 41.2769C62.5179 41.2769 62.722 41.2561 62.9948 41.2153C63.2667 41.1744 63.4709 41.1544 63.6072 41.1544C63.9208 41.1544 64.0772 41.3516 64.0772 41.7453C64.0772 41.8817 64.0703 41.9833 64.0572 42.0511C63.9616 43.0981 63.9139 44.5804 63.9139 46.4972Z" fill="white"/>
<path d="M69.2766 43.7495C68.963 43.7495 68.6941 43.637 68.47 43.4128C68.245 43.1879 68.1325 42.919 68.1325 42.6054C68.1325 42.2926 68.245 42.0269 68.47 41.8088C68.6941 41.5916 68.963 41.4822 69.2766 41.4822C69.5894 41.4822 69.859 41.5916 70.0832 41.8088C70.3081 42.0269 70.4206 42.2926 70.4206 42.6054C70.4206 42.919 70.3081 43.1879 70.0832 43.4128C69.859 43.637 69.5894 43.7495 69.2766 43.7495ZM70.339 49.1015V51.7571C70.339 52.4382 70.3459 52.8395 70.359 52.962C70.4276 53.5753 70.6109 53.8811 70.9106 53.8811C70.9784 53.8811 71.1487 53.848 71.4214 53.7794C71.4892 53.7525 71.5917 53.7386 71.728 53.7386C72.245 53.7386 72.5038 53.9628 72.5038 54.4127C72.5038 54.6038 72.4183 54.7671 72.2473 54.9027C72.077 55.039 71.8621 55.1068 71.6024 55.1068C71.3829 55.1068 71.0524 55.076 70.6086 55.0152C70.1641 54.9535 69.8328 54.9235 69.614 54.9235C69.2581 54.9235 68.8621 54.9505 68.4253 55.0052C67.8921 55.0729 67.537 55.1068 67.359 55.1068C66.8128 55.1068 66.5393 54.8757 66.5393 54.4127C66.5393 53.9628 66.7727 53.7386 67.2404 53.7386C67.3498 53.7386 67.5116 53.7586 67.7242 53.7995C67.9376 53.8403 68.0986 53.8611 68.2088 53.8611C68.5385 53.8611 68.7381 53.425 68.8066 52.5537V47.3242C68.7381 46.4659 68.5316 46.0376 68.1888 46.0376C68.0786 46.0376 67.9237 46.0615 67.7242 46.1092C67.5254 46.157 67.3775 46.1801 67.2812 46.1801C66.7866 46.1801 66.5393 45.9629 66.5393 45.5268C66.5393 45.0638 66.839 44.8319 67.4384 44.8319C67.6965 44.8319 67.8806 44.8388 67.99 44.8527C68.4253 44.9074 68.7049 44.9344 68.8274 44.9344C68.9361 44.9344 69.1032 44.9174 69.3274 44.8835C69.5524 44.8496 69.7188 44.8319 69.8282 44.8319C70.2226 44.8319 70.4206 45.0977 70.4206 45.6285C70.4206 45.6832 70.4152 45.7649 70.4045 45.8743C70.3937 45.9829 70.3883 46.0646 70.3883 46.1193C70.3767 46.2287 70.3659 46.6501 70.3551 47.3858C70.3444 47.9444 70.339 48.516 70.339 49.1015Z" fill="white"/>
<path d="M20.6849 53.5332C20.4422 53.5332 20.2142 53.4384 20.0424 53.2666C19.8706 53.0956 19.7766 52.8676 19.7766 52.6241C19.7766 52.3814 19.8706 52.1534 20.0424 51.9824C21.1911 50.8337 22.7203 50.2012 24.349 50.2012C25.9776 50.2012 27.5077 50.8337 28.6563 51.9824C29.0107 52.336 29.0107 52.913 28.6563 53.2666C28.4845 53.4384 28.2565 53.5332 28.0138 53.5332C27.7711 53.5332 27.5431 53.4384 27.3713 53.2666C26.5655 52.4615 25.4923 52.017 24.349 52.017C23.2065 52.017 22.1333 52.4615 21.3274 53.2666C21.1556 53.4384 20.9276 53.5332 20.6849 53.5332Z" fill="white"/>
<path d="M24.3455 42.4003C20.4812 42.4003 17.3379 45.5443 17.3379 49.4079C17.3379 53.2723 20.4812 56.4163 24.3455 56.4163C28.2099 56.4163 31.3532 53.2723 31.3532 49.4079C31.3532 45.5443 28.2099 42.4003 24.3455 42.4003ZM24.3455 58.233C19.4796 58.233 15.5205 54.2746 15.5205 49.4079C15.5205 44.542 19.4796 40.5829 24.3455 40.5829C29.2115 40.5829 33.1706 44.542 33.1706 49.4079C33.1706 54.2746 29.2115 58.233 24.3455 58.233Z" fill="white"/>
<path d="M21.4356 46.5947C21.0793 46.8446 20.845 47.2546 20.8453 47.7234C20.8456 48.4921 21.4687 49.1145 22.2367 49.1145C22.8115 49.1144 23.3051 48.7651 23.5174 48.2683L21.4356 46.5947Z" fill="white"/>
<path d="M27.2188 46.5948C27.5751 46.8447 27.8093 47.2547 27.809 47.7234C27.8087 48.4921 27.1856 49.1146 26.4176 49.1145C25.8429 49.1145 25.3493 48.7651 25.1369 48.2684L27.2188 46.5948Z" fill="white"/>
</svg>
