<svg width="94" height="48" viewBox="0 0 94 48" fill="none" xmlns="http://www.w3.org/2000/svg">
<path d="M33.2766 31.4327C33.1483 31.1502 33.1103 30.9439 32.9897 30.8188C32.067 29.8668 31.1442 28.9118 30.1854 27.9978C29.8266 27.6567 29.3628 27.6635 28.9923 28.034C28.6326 28.3957 28.5733 28.8668 28.9136 29.2324C29.8159 30.202 30.7446 31.1521 31.7198 32.0446C31.9221 32.2303 32.418 32.2459 32.7029 32.1384C32.9538 32.0436 33.0987 31.6663 33.2766 31.4327ZM33.3155 16.5956C33.1074 16.3267 32.9528 15.9279 32.7126 15.8654C32.3811 15.7794 31.8706 15.8194 31.6352 16.0296C30.7144 16.8507 29.8607 17.75 29.004 18.6414C28.6024 19.0598 28.6287 19.6306 29.0128 19.9913C29.3657 20.3237 29.9015 20.3139 30.3128 19.9102C31.1802 19.0598 32.032 18.1918 32.874 17.315C33.0384 17.1439 33.1307 16.9025 33.3155 16.5956ZM20.3247 20.353C20.6037 20.1272 21.0005 19.9649 21.0569 19.7225C21.1346 19.3882 21.0773 18.8877 20.8653 18.6453C20.1069 17.7783 19.2589 16.9895 18.4441 16.1723C17.9385 15.664 17.3453 15.5946 16.9603 15.9944C16.5558 16.4147 16.5966 16.9025 17.1158 17.4362C17.9054 18.2485 18.7018 19.0549 19.5157 19.8418C19.715 20.0353 19.9921 20.1467 20.3247 20.353ZM17.5379 32.3965C17.8558 32.2352 18.1359 32.1648 18.3158 31.9898C19.1987 31.1297 20.0524 30.2372 20.9236 29.3634C21.3145 28.9704 21.3476 28.5618 21.0112 28.1298C20.6932 27.7202 20.1234 27.6078 19.7305 27.9773C18.7543 28.8951 17.8004 29.8423 16.9029 30.8354C16.7279 31.029 16.7512 31.5216 16.8553 31.8139C16.9398 32.0495 17.2841 32.1922 17.5379 32.3965ZM14.6256 24.9119C15.5698 24.9119 16.514 24.9217 17.4581 24.909C18.1388 24.9002 18.5073 24.56 18.4966 23.9902C18.4859 23.4311 18.1038 23.0899 17.4338 23.087C15.5455 23.0792 13.6562 23.0782 11.7678 23.0909C11.0784 23.0958 10.7284 23.4301 10.7361 24.0107C10.7439 24.5864 11.0949 24.8992 11.7921 24.908C12.7363 24.9207 13.6814 24.9109 14.6256 24.9119ZM25.8399 34.3631H25.838C25.838 33.372 25.836 32.3818 25.838 31.3916C25.8399 30.8227 25.5259 30.5119 24.9979 30.4855C24.4689 30.4581 24.0624 30.7582 24.0537 31.2958C24.0206 33.3182 24.0255 35.3426 24.0498 37.365C24.0556 37.9143 24.3804 38.277 24.9648 38.2887C25.5025 38.2985 25.8273 37.9212 25.837 37.2721C25.8506 36.3025 25.8399 35.3328 25.8399 34.3631ZM35.3059 24.91C36.2501 24.91 37.1943 24.9178 38.1384 24.907C38.8016 24.8992 39.1867 24.5454 39.174 23.9892C39.1614 23.4232 38.7909 23.0928 38.1151 23.0899C36.2268 23.0821 34.3384 23.0801 32.4501 23.0909C31.783 23.0948 31.399 23.4545 31.4106 24.0097C31.4213 24.5698 31.8015 24.9022 32.4734 24.909C33.4176 24.9188 34.3618 24.911 35.3059 24.91ZM25.8438 13.6211H25.8399C25.8399 12.6729 25.8487 11.7238 25.836 10.7757C25.8273 10.0895 25.486 9.69262 24.9502 9.70337C24.4008 9.7151 24.0342 10.0963 24.0274 10.7708C24.009 12.6896 24.0119 14.6074 24.0265 16.5262C24.0313 17.1341 24.4154 17.5173 24.9454 17.529C25.4597 17.5408 25.8322 17.1439 25.8409 16.531C25.8535 15.5614 25.8438 14.5908 25.8438 13.6211ZM24.8617 28.5999C27.4541 28.6254 29.5602 26.5795 29.5787 24.0185C29.5952 21.5768 27.5338 19.483 25.1564 19.3872C22.5135 19.2807 20.3849 21.395 20.3422 23.9276C20.3023 26.2853 22.2218 28.7114 24.8617 28.5999ZM51.5989 23.954C51.5649 33.5284 59.304 41.4176 68.735 41.5085C78.2515 41.5994 86.3416 34.1413 86.4593 24.0742C86.5692 14.5673 78.6949 6.53634 69.3942 6.50115C59.4498 6.46499 51.633 14.1304 51.5989 23.954ZM46.9637 47.996C39.5036 47.996 32.0436 47.9843 24.5836 47.9999C19.2424 48.0117 14.3154 46.6647 9.97089 43.482C4.37199 39.3796 1.07081 33.8607 0.192758 26.9509C-1.30177 15.1919 6.00946 4.17378 17.3794 0.927584C19.5186 0.317638 21.6986 0.0155964 23.9088 0.0136414C39.2693 -0.00395314 54.6308 -0.00297431 69.9922 0.00777794C80.5317 0.0146203 89.9345 6.80808 92.8439 16.837C95.6686 26.5727 93.3038 35.0748 85.873 41.9621C81.7725 45.7635 76.7813 47.8162 71.1698 47.8944C63.102 48.0048 55.0324 47.9227 46.9637 47.9227V47.996Z" fill="white"/>
</svg>
