<svg width="48" height="48" viewBox="0 0 48 48" fill="none" xmlns="http://www.w3.org/2000/svg">
<path d="M47.9995 23.9994C47.9995 37.2541 37.2543 47.9993 23.9995 47.9993C10.7448 47.9993 -0.000488281 37.2541 -0.000488281 23.9994C-0.000488281 10.7448 10.7448 -0.00044632 23.9995 -0.00044632C37.2543 -0.00044632 47.9995 10.7448 47.9995 23.9994Z" fill="white"/>
<path d="M29.2261 31.431C24.4536 31.431 20.57 27.5484 20.57 22.7749C20.57 18.0024 24.4536 14.1188 29.2261 14.1188C33.9987 14.1188 37.8822 18.0024 37.8822 22.7749C37.8822 27.5484 33.9987 31.431 29.2261 31.431ZM29.2261 12.1882C23.3877 12.1882 18.6393 16.9375 18.6393 22.7749C18.6393 24.3413 18.9901 25.8236 19.6027 27.1619L8.83041 33.409C8.21488 33.7665 8.00519 34.5541 8.36176 35.1696C8.60043 35.5812 9.03334 35.8112 9.47687 35.8112C9.69622 35.8112 9.91847 35.7552 10.1214 35.6373L20.9488 29.3583C22.8901 31.7943 25.8759 33.3626 29.2261 33.3626C35.0645 33.3626 39.8139 28.6133 39.8139 22.7749C39.8139 16.9375 35.0645 12.1882 29.2261 12.1882Z" fill="black"/>
<path d="M29.2261 31.431C24.4536 31.431 20.57 27.5484 20.57 22.7749C20.57 18.0024 24.4536 14.1188 29.2261 14.1188C33.9987 14.1188 37.8822 18.0024 37.8822 22.7749C37.8822 27.5484 33.9987 31.431 29.2261 31.431ZM29.2261 12.1882C23.3877 12.1882 18.6393 16.9375 18.6393 22.7749C18.6393 24.3413 18.9901 25.8236 19.6027 27.1619L8.83041 33.409C8.21488 33.7665 8.00519 34.5541 8.36176 35.1696C8.60043 35.5812 9.03334 35.8112 9.47687 35.8112C9.69622 35.8112 9.91847 35.7552 10.1214 35.6373L20.9488 29.3583C22.8901 31.7943 25.8759 33.3626 29.2261 33.3626C35.0645 33.3626 39.8139 28.6133 39.8139 22.7749C39.8139 16.9375 35.0645 12.1882 29.2261 12.1882Z" stroke="black" stroke-width="0.187118" stroke-miterlimit="10"/>
</svg>
