<svg width="140" height="49" viewBox="0 0 140 49" fill="none" xmlns="http://www.w3.org/2000/svg">
<path d="M32.5236 33.2628H35.0199C40.5031 33.2628 42.6719 29.0895 42.6719 23.3193C42.6719 17.6313 40.0935 14.4395 35.0199 14.4395H32.5236V33.2628ZM24.8716 9.93866H35.0199C43.4901 9.93866 48.4826 14.481 48.4826 23.6053C48.4826 32.404 44.1857 37.7645 35.0199 37.7645H24.8716V34.1226L26.8771 33.9584V13.7439L24.8716 13.5806V9.93866Z" fill="white"/>
<path d="M51.1904 17.3869L58.4329 16.9773V28.108C58.4329 31.75 59.0057 33.7546 61.2972 33.7546C63.3442 33.7546 65.2261 32.6088 65.2261 32.6088V21.0289H62.9752V17.3869L70.7093 16.9773V32.1587C70.7093 33.4271 70.9962 34.0009 71.5682 34.0009C72.1419 34.0009 73.2462 33.9188 73.2462 33.9188L73.4509 37.2738C73.4509 37.2738 71.2416 38.2563 69.523 38.2563C67.9271 38.2563 66.5351 37.6013 65.7989 35.9233C65.7989 35.9233 62.7298 38.2563 60.1515 38.2563C54.9551 38.2563 52.9496 34.9418 52.9496 28.0259V21.0289H51.1904V17.3869Z" fill="white"/>
<path d="M89.9305 27.248C89.9305 23.7287 88.2119 21.3145 86.0837 21.3145C84.4472 21.3145 82.4011 22.2555 82.4011 22.2555V33.7948C82.4011 33.7948 84.2839 33.9996 84.8974 33.9996C88.2524 33.9996 89.9305 31.6676 89.9305 27.248ZM74.667 6.66544L82.4011 6.25586V18.7371C82.4011 18.7371 85.0201 16.8137 86.8208 16.8137C92.3861 16.8137 95.4958 20.7011 95.4958 26.8384C95.4958 35.2275 91.6906 38.256 84.8974 38.256C82.5238 38.256 76.9179 37.3556 76.9179 37.3556V10.3074H74.667V6.66544Z" fill="white"/>
<mask id="mask0_612_748" style="mask-type:luminance" maskUnits="userSpaceOnUse" x="74" y="6" width="22" height="33">
<path d="M74.6665 6.66483V10.3068H76.9174V37.3541C76.9174 37.3541 82.5233 38.2554 84.8969 38.2554C91.6891 38.2554 95.4953 35.2259 95.4953 26.8387C95.4953 20.7005 92.3856 16.8122 86.8203 16.8122C85.0196 16.8122 82.4006 18.7365 82.4006 18.7365V6.25525L74.6665 6.66483ZM82.4006 33.7942V22.2549C82.4006 22.2549 84.4467 21.3139 86.0832 21.3139C88.2114 21.3139 89.929 23.7281 89.929 27.2474C89.929 31.667 88.252 33.999 84.8969 33.999C84.2825 33.999 82.4006 33.7942 82.4006 33.7942Z" fill="white"/>
</mask>
<g mask="url(#mask0_612_748)">
<path d="M98.0968 37.0909L73.0727 42.0954L69.9999 3.27546L97.9345 4.2347L98.0968 37.0909Z" fill="white"/>
<path d="M97.6174 23.063L72.5932 28.0674L69.5204 -10.7525L97.455 -9.79325L97.6174 23.063Z" fill="white"/>
</g>
<path d="M111.939 27.248C111.939 23.7287 110.221 21.3145 108.092 21.3145C106.456 21.3145 104.41 22.2555 104.41 22.2555V33.7948C104.41 33.7948 106.293 33.9996 106.906 33.9996C110.261 33.9996 111.939 31.6676 111.939 27.248ZM96.6758 6.66544L104.41 6.25586V18.7371C104.41 18.7371 107.029 16.8137 108.83 16.8137C114.395 16.8137 117.505 20.7011 117.505 26.8384C117.505 35.2275 113.699 38.256 106.906 38.256C104.533 38.256 98.9266 37.3556 98.9266 37.3556V10.3074H96.6758V6.66544Z" fill="white"/>
<path d="M131.325 17.1988H140V20.8408L138.486 21.004L133.453 40.9731C132.062 46.4979 129.852 48.3392 126.701 48.3392C124.696 48.3392 122.24 47.3567 122.24 47.3567L122.65 43.9601C122.65 43.9601 124.328 44.1243 125.351 44.1243C127.233 44.1243 128.01 43.1834 128.665 40.9325L129.606 37.6586H125.309L121.136 21.0456L119.417 20.8408V17.1988H128.093V20.8408L126.619 20.9635L129.524 33.4032H130.425L133.248 21.004L131.325 20.8408V17.1988Z" fill="white"/>
<path d="M10.8489 11.5671C9.53715 16.0162 8.88127 20.1204 8.88127 23.8786C8.88127 27.6727 9.53715 31.776 10.8489 36.1891C12.1607 40.6042 13.8618 44.4408 15.954 47.7027H9.57313C6.52339 44.4408 4.16551 40.737 2.4995 36.5886C0.832572 32.4402 0.000488281 28.2041 0.000488281 23.8786C0.000488281 19.517 0.832572 15.2635 2.4995 11.115C4.16551 6.96662 6.52339 3.26191 9.57313 0H15.954C13.8618 3.26191 12.1607 7.11791 10.8489 11.5671Z" fill="white"/>
<mask id="mask1_612_748" style="mask-type:luminance" maskUnits="userSpaceOnUse" x="0" y="0" width="16" height="48">
<path d="M9.57264 0C6.5229 3.26191 4.16503 6.96662 2.49902 11.116C0.833005 15.2635 0 19.518 0 23.8786C0 28.2041 0.833005 32.4411 2.49902 36.5886C4.16503 40.737 6.5229 44.4417 9.57264 47.7036H15.9535C13.8613 44.4417 12.1593 40.6042 10.8484 36.1901C9.53666 31.776 8.88078 27.6727 8.88078 23.8786C8.88078 20.1213 9.53666 16.0171 10.8484 11.5671C12.1593 7.11883 13.8613 3.26191 15.9535 0H9.57264Z" fill="white"/>
</mask>
<g mask="url(#mask1_612_748)">
<path d="M18.7385 48.4476L-1.79253 52.6975L-5.32918 14.6598L17.7585 16.3167L18.7385 48.4476Z" fill="white"/>
<path d="M17.7785 22.9276L-2.75249 27.1775L-6.28914 -10.8602L16.7985 -9.20329L17.7785 22.9276Z" fill="white"/>
</g>
</svg>
